<?xml version="1.0" encoding="utf-8"?>
<!-- Generator: Adobe Illustrator 25.0.0, SVG Export Plug-In . SVG Version: 6.00 Build 0)  -->
<svg version="1.1" id="Layer_1" xmlns="http://www.w3.org/2000/svg" xmlns:xlink="http://www.w3.org/1999/xlink" x="0px" y="0px"
	 viewBox="0 0 320 283.1" style="enable-background:new 0 0 320 283.1;" xml:space="preserve">
<style type="text/css">
	.st0{fill-rule:evenodd;clip-rule:evenodd;fill:#FAD74B;}
	.st1{fill-rule:evenodd;clip-rule:evenodd;fill:#FE9431;}
	.st2{fill-rule:evenodd;clip-rule:evenodd;fill:#E3222A;}
	.st3{fill:#FFFFFF;}
</style>
<g id="Layer_2_1_">
</g>
<g>
	<g>
		<circle class="st0" cx="220.7" cy="105.8" r="99.3"/>
		<circle class="st1" cx="220.6" cy="105.7" r="79.6"/>
		<circle class="st2" cx="220.6" cy="105.7" r="60.5"/>
	</g>
	<g>
		<path class="st3" d="M37.4,255.4H14.7c-0.5,0-0.9,0.4-0.9,0.9v5.2c0,0.5,0.4,0.9,0.9,0.9h7.1c0.4,0,0.7,0.3,0.7,0.7v19.3
			c0,0.5,0.4,0.9,0.9,0.9h5.4c0.5,0,0.9-0.4,0.9-0.9V263c0-0.4,0.3-0.7,0.7-0.7h7.1c0.5,0,0.9-0.4,0.9-0.9v-5.2
			C38.2,255.8,37.8,255.4,37.4,255.4z"/>
		<path class="st3" d="M71.3,256.2c-0.2-0.5-0.7-0.8-1.2-0.8h-5.3c-0.5,0-1,0.3-1.2,0.8L53,282.4c-0.1,0.4,0.1,0.8,0.5,0.8h6
			c0.5,0,1-0.3,1.1-0.8l1-2.6c0.1-0.4,0.5-0.7,1-0.7h9.5c0.4,0,0.8,0.3,1,0.7l1,2.6c0.2,0.5,0.6,0.8,1.1,0.8h6
			c0.4,0,0.7-0.4,0.5-0.8L71.3,256.2z M69.8,272.7h-4.7c-0.4,0-0.6-0.4-0.5-0.7l2.6-6.8c0.1-0.2,0.4-0.2,0.5,0l2.5,6.8
			C70.3,272.3,70.1,272.7,69.8,272.7z"/>
		<path class="st3" d="M120.2,255.4H97.5c-0.5,0-0.9,0.4-0.9,0.9v5.2c0,0.5,0.4,0.9,0.9,0.9h7.1c0.4,0,0.7,0.3,0.7,0.7v19.3
			c0,0.5,0.4,0.9,0.9,0.9h5.4c0.5,0,0.9-0.4,0.9-0.9V263c0-0.4,0.3-0.7,0.7-0.7h7.1c0.5,0,0.9-0.4,0.9-0.9v-5.2
			C121,255.8,120.6,255.4,120.2,255.4z"/>
		<path class="st3" d="M154.1,256.2c-0.2-0.5-0.7-0.8-1.2-0.8h-5.3c-0.5,0-1,0.3-1.2,0.8l-10.6,26.2c-0.1,0.4,0.1,0.8,0.5,0.8h6
			c0.5,0,1-0.3,1.1-0.8l1-2.6c0.1-0.4,0.5-0.7,1-0.7h9.5c0.4,0,0.8,0.3,1,0.7l1,2.6c0.2,0.5,0.6,0.8,1.1,0.8h6
			c0.4,0,0.7-0.4,0.5-0.8L154.1,256.2z M152.5,272.7h-4.7c-0.4,0-0.6-0.4-0.5-0.7l2.6-6.8c0.1-0.2,0.4-0.2,0.5,0l2.5,6.8
			C153.1,272.3,152.9,272.7,152.5,272.7z"/>
		<path class="st3" d="M210,255.4h-5.4c-0.5,0-0.9,0.4-0.9,0.9v14c0,0.2-0.3,0.4-0.4,0.1L192,256.1c-0.3-0.4-0.9-0.7-1.4-0.7h-4.3
			c-0.5,0-0.9,0.4-0.9,0.9v26.1c0,0.5,0.4,0.9,0.9,0.9h5.5c0.5,0,0.9-0.4,0.9-0.9v-13.9c0-0.2,0.3-0.4,0.4-0.1l11.4,14.2
			c0.3,0.4,0.9,0.7,1.4,0.7h4.3c0.5,0,0.9-0.4,0.9-0.9v-26.1C210.9,255.8,210.5,255.4,210,255.4z"/>
		<path class="st3" d="M247.8,267.9c-0.2-0.3-0.2-0.8,0.1-1.1l9.8-10.7c0.2-0.2,0-0.6-0.3-0.6H250c-0.5,0-1.1,0.2-1.4,0.6l-7.5,8.4
			c-0.1,0.2-0.5,0.1-0.5-0.2v-8c0-0.5-0.4-0.9-0.9-0.9h-5.4c-0.5,0-0.9,0.4-0.9,0.9v26.1c0,0.5,0.4,0.9,0.9,0.9h5.4
			c0.5,0,0.9-0.4,0.9-0.9v-6.8c0-0.4,0.2-0.9,0.5-1.2l1-1c0.2-0.3,0.7-0.2,0.9,0l6.7,9.2c0.3,0.4,0.8,0.7,1.3,0.7h7.1
			c0.4,0,0.6-0.4,0.4-0.7L247.8,267.9z"/>
		<path class="st3" d="M306.1,282.4l-10.6-26.2c-0.2-0.5-0.7-0.8-1.2-0.8H289c-0.5,0-1,0.3-1.2,0.8l-10.6,26.2
			c-0.1,0.4,0.1,0.8,0.5,0.8h6c0.5,0,1-0.3,1.1-0.8l1-2.6c0.1-0.4,0.5-0.7,1-0.7h9.5c0.4,0,0.8,0.3,1,0.7l1,2.6
			c0.2,0.5,0.6,0.8,1.1,0.8h6C306,283.1,306.2,282.7,306.1,282.4z M294,272.7h-4.7c-0.4,0-0.6-0.4-0.5-0.7l2.6-6.8
			c0.1-0.2,0.4-0.2,0.5,0l2.5,6.8C294.6,272.3,294.3,272.7,294,272.7z"/>
		<path class="st3" d="M106.5,226.7c-6.3-5.6-12.6-11.2-18.9-16.8c-0.5-0.4-0.9-0.8-1.3-1.1l-13.9-12.5H54.8l-6.5,7.4l22.7,20.2
			c1.1,2.1,1.8,5.1,0.8,9.4h40.1c0.2-0.5,0.2-0.6,0.4-1.1l0.3,0l-0.2-0.2c0,0,0,0,0,0C110.4,230.2,108.5,228.4,106.5,226.7z"/>
		<path class="st3" d="M263.3,128.3c-2.6-4-2.4-5.5,2.4-7.1c4.9-1.6,10-2.9,15-3.4c5.6-0.6,11.3-0.1,16.9-0.1c2.1,0,4.1,0,6.2,0
			c0.1-0.4,0.1-0.9,0.2-1.3c-8-5.7-16.7-10.3-26.1-12.9c-8.4-2.3-17.2-2.4-25.7-0.2c-4,1-6.2-0.1-8.4-3.5
			c-5.3-8.1-11.1-15.8-16.6-23.6c-5.3-7.6-12.8-10.5-21.8-10.4c-7.2,0-14.1,1.9-20.3,5.1c-3.2,1.7-6.4,3.3-9.7,5L99.5,0L80.7,9.9
			l75.9,75.9c-0.6,0.3-1.1,0.6-1.7,0.9L87.5,19.4l-18.9,9.9l67.9,67.9c-0.6,0.4-1.2,0.7-1.8,1.1L83.2,46.7l-18.9,9.9l52.6,52.6
			c-0.6,0.4-1.3,0.8-1.9,1.2L89.2,84.7l-18.9,9.9l26.7,26.7c-1,0.5-2,0.9-3.1,1c-8.6,0.5-16.5,2.9-24.1,6.9c-0.1,0-0.2,0.1-0.3,0.1
			c-0.3,0-0.8-0.1-1.5-0.1c-0.1,0-0.1,0-0.2,0c0,0,0,0-0.1,0c-7-0.3-30.6,0.7-56.8,26.2c-3.7,1.3-11,4.6-10,9.6
			c0,0,7.1,1.9,11.3-8.3c12.4-7.5,39-22.6,46.8-19.3c-4.7,5.3-10.3,9.8-12.5,17c1,0.5,1.9,0.9,2.8,1.2c1.1,0.4,2.4,0.5,3.5,0.9
			c2.9,1,3.2,2.9,0.8,4.8c-2.9,2.4-6.4,2.7-9.7,1.9c-3.2-0.8-5.4-0.2-7.6,2c-4.2,4.3-8.4,8.5-12.7,12.7C16,185.8,8,193.6,0,201.4
			c2.5,3.1,5.3,2.9,8.4,2.3c2.3-0.5,4.5,0.1,5,3c0.5,2.6-1.4,4.9-4.5,5.1c-2.4,0.2-4.8,0-8.3,0c2.5,3,4.1,5.3,6,7.3
			c3.3,3.5,7.1,6.6,10.1,10.3c3.9,4.9,8.3,7.8,14.9,6.9c3-0.4,6-0.1,9.1-0.1c7.8,0,15.6,0,23.5,0c0.3-0.6,0.3-0.7,0.6-1.3
			c-5.9-7-11.9-14.1-17.8-21.1c-5.4-6.4-5.4-8.4,0-15.1c0.9-1.1,1.7-2.3,2.7-3.3c3.4-3.4,7.2-5.4,12.4-4.4c4.1,0.8,7.1,1.7,11.4,2
			l0,0l33.7,10.1c0.5,0.2,1.1,0.3,1.6,0.5l0,0l0,0c5.5,1.4,8.6-0.9,13-3.2c3.5-1.8,7.5-1.5,10.9,0.9c2.5,1.8,3.7,4.2,2.8,7.4
			c-0.9,3-3.2,3.2-5.8,3.2c-2.5,0-4.9,0.2-8.3,0.3c1.5,2.2,2.1,3.4,3,4.4c5,5.5,10.1,10.9,14.9,16.5c1.9,2.3,4,3,6.8,3
			c12.3-0.1,24.6,0,36.8,0c1.3,0,2.6-0.4,4.2-0.6c-0.4-1.2-0.6-2-1-2.6c-3.3-5-6.6-10.1-10.1-14.9c-1.8-2.5-1.6-4.4,0.6-6.2
			c0.9-0.8,1.9-1.5,2.8-2.3c9.7-8.4,19.3-16.8,28.9-25.3l4.7,2.1c-8.2,7.4-16.5,14.6-24.7,22.1c-3.1,2.8-2.9,3.5-0.2,6.4
			c2.9,3.1,4,3.4,7.1,0.9c2.4-1.9,4.5-4,6.8-6c4.4-4,8.9-8.1,13.7-12.4c3.2,3,6.1,5.7,9.1,8.4c8-6.6,16.4-13.2,21.4-23
			c0.5-1,2.9-2,4-1.7c3.8,1,5.6-1.2,7.4-3.7c5.6-7.8,11.4-15.6,16.9-23.4c3.2-4.5,3-4.9-0.2-9.6
			C270.5,138.9,266.9,133.6,263.3,128.3z M252.2,119.9c-4.3,4.2-6.6,8.9-7.3,14.7c-0.5,4.4-1.1,4.9-5,4.9c-4.1,0-7.2-2.2-7.4-5.5
			c-0.1-1.9,0.2-4,1-5.8c4.7-11,13.6-16.3,25.1-17.6c2.7-0.3,5.6,0,8.3,0C262.1,114,256.6,115.7,252.2,119.9z"/>
		<path class="st3" d="M244.2,233.3c0.2-0.6,0.3-0.6,0.5-1.2c-1.9-1.8-3.8-3.6-5.8-5.4c-6.3-5.6-12.6-11.2-18.9-16.8
			c-3.9-3.5-4.5-3.6-8.6-0.2c-3.9,3.2-7.8,6.4-11.6,9.7c-0.8,0.7-1.1,1.8-1.7,2.8c7.4,3.1,8.4,0.9,6,11.2H244.2z"/>
	</g>
</g>
</svg>
